<?xml version="1.0" standalone="yes"?>
<svg xmlns="http://www.w3.org/2000/svg" width="1500" height="1500">
<path style="fill:#010101; stroke:none;" d="M0 0L0 1500L1500 1500L1500 0L0 0z"/>
<path style="fill:#353433; stroke:none;" d="M287 656L288 657L287 656z"/>
<path style="fill:#434343; stroke:none;" d="M288.667 656.333L289.333 656.667L288.667 656.333z"/>
<path style="fill:#a57a30; stroke:none;" d="M290 656L290 657L296 657L290 656z"/>
<path style="fill:#febd4b; stroke:none;" d="M244 838C255.84 817.924 273.553 794.38 280 772C267.707 772 236.415 777.647 228.742 765.956C221.965 755.63 243.938 734.797 249.884 727C260.524 713.047 271.086 699.031 281.627 685C286.01 679.165 290.995 669.881 298.004 667.009C309.418 662.333 328.711 666 341 666C328.331 656.521 307.022 655.81 292 656.911C229.573 661.487 188.062 722.036 203.127 782C208.121 801.881 223.006 831.296 244 838z"/>
<path style="fill:#a57a30; stroke:none;" d="M303 656L303 657L310 657L303 656z"/>
<path style="fill:#434343; stroke:none;" d="M310 656L311 657L310 656z"/>
<path style="fill:#353433; stroke:none;" d="M311 656L312 657L311 656M281 657L282 658L281 657z"/>
<path style="fill:#434343; stroke:none;" d="M282 657L283 658L282 657z"/>
<path style="fill:#a57a30; stroke:none;" d="M283.667 657.333L284.333 657.667L283.667 657.333M314.667 657.333L315.333 657.667L314.667 657.333z"/>
<path style="fill:#434343; stroke:none;" d="M316 657L317 658L316 657z"/>
<path style="fill:#353433; stroke:none;" d="M317 657L318 658L317 657z"/>
<path style="fill:#434343; stroke:none;" d="M277 658L278 659L277 658z"/>
<path style="fill:#a57a30; stroke:none;" d="M278 658L279 659L278 658M320 658L321 659L320 658z"/>
<path style="fill:#434343; stroke:none;" d="M321 658L322 659L321 658z"/>
<path style="fill:#353433; stroke:none;" d="M322 658L323 659L322 658z"/>
<path style="fill:#434343; stroke:none;" d="M273 659L274 660L273 659z"/>
<path style="fill:#a57a30; stroke:none;" d="M274 659L275 660L274 659M324 659L325 660L324 659z"/>
<path style="fill:#434343; stroke:none;" d="M325 659L326 660L325 659z"/>
<path style="fill:#353433; stroke:none;" d="M326 659L327 660L326 659z"/>
<path style="fill:#a57a30; stroke:none;" d="M270 660L271 661L270 660M328 660L329 661L328 660z"/>
<path style="fill:#353433; stroke:none;" d="M329 660L330 661L329 660z"/>
<path style="fill:#434343; stroke:none;" d="M267 661L268 662L267 661z"/>
<path style="fill:#a57a30; stroke:none;" d="M268 661L269 662L268 661M331 661L332 662L331 661z"/>
<path style="fill:#434343; stroke:none;" d="M264 662L265 663L264 662z"/>
<path style="fill:#a57a30; stroke:none;" d="M265 662L266 663L265 662M333 662L334 663L333 662z"/>
<path style="fill:#434343; stroke:none;" d="M334 662L335 663L334 662M261 663L262 664L261 663z"/>
<path style="fill:#a57a30; stroke:none;" d="M262 663L263 664L262 663M336 663L337 664L336 663z"/>
<path style="fill:#434343; stroke:none;" d="M337 663L338 664L337 663z"/>
<path style="fill:#353433; stroke:none;" d="M258 664L259 665L258 664z"/>
<path style="fill:#a57a30; stroke:none;" d="M259 664L260 665L259 664M339 664L340 665L339 664z"/>
<path style="fill:#434343; stroke:none;" d="M256 665L257 666L256 665z"/>
<path style="fill:#a57a30; stroke:none;" d="M257 665L258 666L257 665M341 665L342 666L341 665z"/>
<path style="fill:#353433; stroke:none;" d="M254 666L255 667L254 666z"/>
<path style="fill:#a57a30; stroke:none;" d="M255 666L256 667L255 666z"/>
<path style="fill:#434343; stroke:none;" d="M298 666L299 667L298 666z"/>
<path style="fill:#353433; stroke:none;" d="M252 667L253 668L252 667z"/>
<path style="fill:#a57a30; stroke:none;" d="M253 667L254 668L253 667z"/>
<path style="fill:#353433; stroke:none;" d="M296 667L297 668L296 667z"/>
<path style="fill:#a57a30; stroke:none;" d="M251 668L252 669L251 668M294 668L295 669L294 668M249 669L250 670L249 669M293 669L294 670L293 669z"/>
<path style="fill:#353433; stroke:none;" d="M247 670L248 671L247 670z"/>
<path style="fill:#a57a30; stroke:none;" d="M292 670L293 671L292 670M246 671L247 672L246 671z"/>
<path style="fill:#434343; stroke:none;" d="M244 672L245 673L244 672z"/>
<path style="fill:#353433; stroke:none;" d="M291 672L292 673L291 672z"/>
<path style="fill:#a57a30; stroke:none;" d="M243 673L244 674L243 673z"/>
<path style="fill:#434343; stroke:none;" d="M290 673L291 674L290 673z"/>
<path style="fill:#353433; stroke:none;" d="M241 674L242 675L241 674z"/>
<path style="fill:#a57a30; stroke:none;" d="M289 674L290 675L289 674M240 675L241 676L240 675M239 676L240 677L239 676z"/>
<path style="fill:#353433; stroke:none;" d="M288 676L289 677L288 676M237 677L238 678L237 677z"/>
<path style="fill:#434343; stroke:none;" d="M287 677L288 678L287 677z"/>
<path style="fill:#a57a30; stroke:none;" d="M236 678L237 679L236 678M286 678L287 679L286 678M235 679L236 680L235 679M285 679L286 680L285 679z"/>
<path style="fill:#353433; stroke:none;" d="M232 681L233 682L232 681M284 681L285 682L284 681M231 682L232 683L231 682z"/>
<path style="fill:#a57a30; stroke:none;" d="M283 682L284 683L283 682z"/>
<path style="fill:#434343; stroke:none;" d="M230 683L231 684L230 683z"/>
<path style="fill:#a57a30; stroke:none;" d="M282 683L283 684L282 683M229 684L230 685L229 684M228 685L229 686L228 685z"/>
<path style="fill:#353433; stroke:none;" d="M281 685L282 686L281 685z"/>
<path style="fill:#434343; stroke:none;" d="M227 686L228 687L227 686z"/>
<path style="fill:#a57a30; stroke:none;" d="M280 686L281 687L280 686z"/>
<path style="fill:#434343; stroke:none;" d="M226 687L227 688L226 687z"/>
<path style="fill:#a57a30; stroke:none;" d="M279 687L280 688L279 687z"/>
<path style="fill:#434343; stroke:none;" d="M225 688L226 689L225 688z"/>
<path style="fill:#353433; stroke:none;" d="M224 689L225 690L224 689M278 689L279 690L278 689M223 690L224 691L223 690z"/>
<path style="fill:#a57a30; stroke:none;" d="M277 690L278 691L277 690M276 691L277 692L276 691z"/>
<path style="fill:#353433; stroke:none;" d="M376 692L375 694L376 692z"/>
<path style="fill:#a57a30; stroke:none;" d="M221 693L222 694L221 693z"/>
<path style="fill:#353433; stroke:none;" d="M275 693L276 694L275 693z"/>
<path style="fill:#febd4b; stroke:none;" d="M348 721L393 721L378 693C367.549 697.874 354.631 711.587 348 721z"/>
<path style="fill:#434343; stroke:none;" d="M220 694L221 695L220 694M274 694L275 695L274 694M374 694L375 695L374 694z"/>
<path style="fill:#a57a30; stroke:none;" d="M378 694L379 695L378 694z"/>
<path style="fill:#353433; stroke:none;" d="M219 695L220 696L219 695z"/>
<path style="fill:#a57a30; stroke:none;" d="M273 695L274 696L273 695z"/>
<path style="fill:#434343; stroke:none;" d="M373 695L374 696L373 695z"/>
<path style="fill:#353433; stroke:none;" d="M379 695L380 696L379 695z"/>
<path style="fill:#434343; stroke:none;" d="M372 696L373 697L372 696z"/>
<path style="fill:#a57a30; stroke:none;" d="M218 697L219 698L218 697z"/>
<path style="fill:#353433; stroke:none;" d="M272 697L273 698L272 697z"/>
<path style="fill:#434343; stroke:none;" d="M371 697L372 698L371 697z"/>
<path style="fill:#a57a30; stroke:none;" d="M380 697L381 698L380 697z"/>
<path style="fill:#434343; stroke:none;" d="M217 698L218 699L217 698M271 698L272 699L271 698z"/>
<path style="fill:#a57a30; stroke:none;" d="M370 698L371 699L370 698z"/>
<path style="fill:#434343; stroke:none;" d="M381 698L382 699L381 698z"/>
<path style="fill:#a57a30; stroke:none;" d="M270 699L271 700L270 699M369 699L370 700L369 699z"/>
<path style="fill:#353433; stroke:none;" d="M382 699L383 700L382 699z"/>
<path style="fill:#a57a30; stroke:none;" d="M216 700L217 701L216 700M368 700L369 701L368 700z"/>
<path style="fill:#434343; stroke:none;" d="M426 700L426 753L426 797C426 801.125 424.338 810 427.028 813.397C429.368 816.351 436.685 815 440 815C451.228 815 470.663 818.293 478.351 807.956C483.534 800.987 482 791.148 482 783L482 728C482 719.75 483.013 710.281 475.945 704.394C464.89 695.186 439.531 700 426 700z"/>
<path style="fill:#353433; stroke:none;" d="M466 700L466 701L469 701L466 700M714.667 700.333L715.333 700.667L714.667 700.333z"/>
<path style="fill:#434343; stroke:none;" d="M757 777L739 777C739 781.783 740.25 788.763 737.258 792.852C734.045 797.242 723.18 797.68 720.179 792.772C717.573 788.51 719 780.805 719 776L719 740C719 734.918 717.756 727.829 719.742 723.058C722.406 716.66 734.346 716.458 737.821 722.225C740.295 726.329 739 733.379 739 738L757 738C757 727.548 759.826 712.172 750.815 704.558C745.343 699.935 737.742 700 731 700C713.74 699.999 700.099 702.676 700.001 723C699.909 741.999 700 761.001 700 780C700 788.74 698.468 799.188 703.482 806.907C711.315 818.964 744.532 818.783 753.197 807.815C759.437 799.916 757 786.402 757 777z"/>
<path style="fill:#353433; stroke:none;" d="M741.667 700.333L742.333 700.667L741.667 700.333z"/>
<path style="fill:#434343; stroke:none;" d="M215 701L216 702L215 701z"/>
<path style="fill:#353433; stroke:none;" d="M269 701L270 702L269 701z"/>
<path style="fill:#a57a30; stroke:none;" d="M367 701L368 702L367 701M383 701L384 702L383 701z"/>
<path style="fill:#353433; stroke:none;" d="M425 701L425 814L426 814L426 735L425 701M471 701L472 702L471 701M711 701L712 702L711 701M745.667 701.333L746.333 701.667L745.667 701.333z"/>
<path style="fill:#434343; stroke:none;" d="M268 702L269 703L268 702z"/>
<path style="fill:#a57a30; stroke:none;" d="M366 702L367 703L366 702z"/>
<path style="fill:#353433; stroke:none;" d="M384 702L385 703L384 702M473 702L474 703L473 702M708.667 702.333L709.333 702.667L708.667 702.333M748 702L749 703L748 702z"/>
<path style="fill:#a57a30; stroke:none;" d="M214 703L215 704L214 703M267 703L268 704L267 703M365 703L366 704L365 703M384 703L385 704L384 703z"/>
<path style="fill:#353433; stroke:none;" d="M475 703L476 704L475 703M707 703L708 704L707 703M749 703L750 704L749 703M213 704L214 705L213 704z"/>
<path style="fill:#a57a30; stroke:none;" d="M364 704L365 705L364 704z"/>
<path style="fill:#434343; stroke:none;" d="M385 704L386 705L385 704z"/>
<path style="fill:#353433; stroke:none;" d="M476 704L477 705L476 704z"/>
<path style="fill:#a57a30; stroke:none;" d="M213 705L214 706L213 705z"/>
<path style="fill:#353433; stroke:none;" d="M266 705L267 706L266 705z"/>
<path style="fill:#a57a30; stroke:none;" d="M363 705L364 706L363 705z"/>
<path style="fill:#353433; stroke:none;" d="M477 705L478 706L477 705M752 705L753 706L752 705z"/>
<path style="fill:#434343; stroke:none;" d="M212 706L213 707L212 706M265 706L266 707L265 706z"/>
<path style="fill:#a57a30; stroke:none;" d="M386 706L387 707L386 706z"/>
<path style="fill:#353433; stroke:none;" d="M478 706L479 707L478 706z"/>
<path style="fill:#a57a30; stroke:none;" d="M264 707L265 708L264 707z"/>
<path style="fill:#353433; stroke:none;" d="M387 707L388 708L387 707M703 707L704 708L703 707M753 707L754 708L753 707z"/>
<path style="fill:#a57a30; stroke:none;" d="M211 708L212 709L211 708M263 708L264 709L263 708M387 708L388 709L387 708z"/>
<path style="fill:#353433; stroke:none;" d="M702 708L703 709L702 708M754 708L755 709L754 708M210 709L211 710L210 709M358 709L359 710L358 709M388 709L389 710L388 709M480.333 709.667L480.667 710.333L480.333 709.667z"/>
<path style="fill:#a57a30; stroke:none;" d="M210 710L211 711L210 710z"/>
<path style="fill:#434343; stroke:none;" d="M262 710L263 711L262 710z"/>
<path style="fill:#353433; stroke:none;" d="M357 710L358 711L357 710z"/>
<path style="fill:#a57a30; stroke:none;" d="M388 710L389 711L388 710z"/>
<path style="fill:#353433; stroke:none;" d="M701.333 710.667L701.667 711.333L701.333 710.667M755 710L756 711L755 710z"/>
<path style="fill:#a57a30; stroke:none;" d="M261 711L262 712L261 711z"/>
<path style="fill:#353433; stroke:none;" d="M356 711L357 712L356 711M389 711L390 712L389 711z"/>
<path style="fill:#a57a30; stroke:none;" d="M209 712L210 713L209 712M260 712L261 713L260 712z"/>
<path style="fill:#353433; stroke:none;" d="M355 712L356 713L355 712z"/>
<path style="fill:#a57a30; stroke:none;" d="M389 712L390 713L389 712z"/>
<path style="fill:#353433; stroke:none;" d="M481.333 712.667L481.667 713.333L481.333 712.667M354 713L355 714L354 713M700 713L700 716L701 716L700 713M756.333 713.667L756.667 714.333L756.333 713.667z"/>
<path style="fill:#434343; stroke:none;" d="M208 714L209 715L208 714z"/>
<path style="fill:#353433; stroke:none;" d="M259 714L260 715L259 714z"/>
<path style="fill:#434343; stroke:none;" d="M353 714L354 715L353 714z"/>
<path style="fill:#a57a30; stroke:none;" d="M390 714L391 715L390 714z"/>
<path style="fill:#353433; stroke:none;" d="M498 815L499 815L498 780L498 715L539 715L508 714L498.028 715.603L497 740L497 789L498 815M570 815L571 815L570 780L570 715L588 715L588 780L587 815C590.996 809.726 589 799.423 589 793L589 737C589 732.188 591.604 716.025 585.852 714.318C582.449 713.308 571.437 712.592 569.603 716.318C566.551 722.522 569 735.127 569 742L569 790C569 798.018 567.719 807.283 570 815M604 815L605 815L604 780L604 715L628 716C624.408 713.279 606.013 711.421 603.603 716.318C600.551 722.522 603 735.127 603 742L603 790C603 798.018 601.719 807.283 604 815M662 714L662 715L685 716C679.559 711.878 668.647 714 662 714M787 714L787 715L814 715L787 714M845 714L845 715L860 716L845 714M887 715L887 716L904 715L887 715M935 714L935 715L962 715L935 714M992 715L992 716L1011 716C1006.4 712.517 997.341 713.421 992 715M1032 714L1032 715L1049 716L1032 714M1065 714L1065 715L1082 715L1065 714M1127 714L1127 715L1182 715L1164 714L1127 714z"/>
<path style="fill:#a57a30; stroke:none;" d="M258 715L259 716L258 715z"/>
<path style="fill:#434343; stroke:none;" d="M352 715L353 716L352 715M498 715L498 784C498 791.609 495.232 805.83 498.603 812.682C500.55 816.638 512.699 816.088 514.972 812.682C518.955 806.714 516 791.081 516 784C519.544 784 525.506 782.887 528.272 785.603C538.022 795.178 527.263 815.12 546 814.999C547.779 814.988 550.024 815.233 551.667 814.397C554.728 812.839 552.99 808.503 552.373 806C550.743 799.385 546.14 789.1 547.255 782.325C547.921 778.275 552.438 775.316 553.468 771C556.232 759.413 558.087 726.553 547.895 718.649C536.883 710.109 511.309 715 498 715z"/>
<path style="fill:#353433; stroke:none;" d="M541.667 715.333L542.333 715.667L541.667 715.333z"/>
<path style="fill:#434343; stroke:none;" d="M570 715L570 782C570 790.94 567.773 803.28 570.318 811.852C571.624 816.252 582.25 816.085 585.682 814.397C590.6 811.977 588 794.807 588 790L588 715L570 715M604 715L604 787C604 793.034 601.205 808.569 605.028 813.397C608.062 817.228 620.346 815.808 621.682 810.941C626.127 794.755 622 771.828 622 755L624 755C625.398 772.116 630.476 793.878 636.483 809.981C638.279 814.795 645.065 816.958 649.487 813.821C653.445 811.012 654.05 801.434 655 797C658.007 782.968 661.404 768.893 665 755L666 755C669.116 768.087 667 783.576 667 797C667 801.125 665.338 810 668.028 813.397C670.639 816.693 683.339 816.152 684.682 811.772C686.603 805.505 685 796.539 685 790L685 742C685 735.373 687.343 723.306 684.397 717.318C682.325 713.108 663.003 713.449 660.652 717.318C657.299 722.836 656.688 731.756 655.127 738C651.644 751.93 646.17 766.682 645 781C637.545 768.073 636.004 748.523 632.373 734C631.22 729.387 630.593 718.942 626.487 716.028C621.788 712.693 609.63 715 604 715z"/>
<path style="fill:#353433; stroke:none;" d="M783.667 715.333L784.333 715.667L783.667 715.333z"/>
<path style="fill:#434343; stroke:none;" d="M785 715.533C767.291 719.838 772 745.588 772 759C772 773.026 766.31 802.638 780.093 811.517C785.952 815.291 794.29 815.002 801 815C805.99 814.998 811.127 814.839 816 813.621C833.711 809.197 829 783.517 829 770C829 755.503 835.063 724.278 818.999 716.573C813.403 713.888 806.028 715 800 715C795.14 715 789.756 714.377 785 715.533z"/>
<path style="fill:#353433; stroke:none;" d="M816.667 715.333L817.333 715.667L816.667 715.333z"/>
<path style="fill:#434343; stroke:none;" d="M844 715L844 787C844 793.034 841.205 808.569 845.028 813.397C847.968 817.108 859.985 816.029 860.852 810.941C863.687 794.301 861 774.9 861 758L862 758C869.262 775.443 878.282 793.649 887.796 809.981C890.379 814.414 898.692 817.698 903.397 813.972C907.652 810.602 905 794.098 905 789L905 715L888.603 716.028L887 730L887 771L867.247 731L858.61 716.028L844 715z"/>
<path style="fill:#353433; stroke:none;" d="M931.667 715.333L932.333 715.667L931.667 715.333z"/>
<path style="fill:#434343; stroke:none;" d="M938 783C933.833 783 925.012 781.328 921.603 784.028C914.26 789.844 922.879 808.665 929.04 812.08C939.552 817.906 966.396 817.874 973.518 806.907C978.231 799.649 977 790.22 977 782C977 777.185 978.447 769.442 975.972 765.133C969.609 754.055 943.651 760.14 938.603 748.775C933.668 737.663 947.669 724.924 956.486 735.228C959.061 738.238 958.969 742.278 959 746L977 746C977 736.438 978.368 725.122 969.957 718.419C958.367 709.182 925.232 712.392 920.928 728C918.862 735.494 916.602 760.349 924.059 764.722C932.002 769.38 954.773 769.964 958.397 779.055C962.648 789.721 950.483 805.24 940.564 794.566C937.801 791.593 938.031 786.768 938 783z"/>
<path style="fill:#353433; stroke:none;" d="M964.667 715.333L965.333 715.667L964.667 715.333z"/>
<path style="fill:#434343; stroke:none;" d="M1031 715L1031 748C1031 760.132 1034.76 779.701 1030.26 790.981C1027.74 797.287 1014.62 798.571 1011.74 791.891C1009.51 786.71 1011 778.554 1011 773C1011 756.771 1015.29 733.659 1010.68 718.148C1009.37 713.715 995.658 713.282 993.028 716.603C988.653 722.127 992 741.026 992 748L992 789C992 796.505 992.135 804.869 998.329 810.211C1004.72 815.726 1015.09 815.037 1023 814.999C1029.14 814.97 1036.71 814.698 1041.81 810.891C1048.76 805.711 1049 796.856 1049 789L1049 739C1049 733.722 1051.35 720.867 1047.97 716.603C1045.25 713.161 1034.98 715 1031 715M1064 715L1064 784C1064 791.608 1061.23 805.83 1064.6 812.682C1066.25 816.036 1071.96 815 1075 815L1103 815C1105.8 815 1110.98 815.918 1112.97 813.397C1114.47 811.509 1114 808.236 1114 806C1114.02 790.69 1094.7 796 1083 796L1083 715L1064 715M1126 715L1127.03 731.397L1145 733L1145 789C1145 795.381 1142.76 806.911 1145.6 812.682C1147.37 816.265 1158.55 815.936 1161.68 814.397C1166.26 812.143 1164 798.345 1164 794L1164 733L1181.97 731.397L1183 715L1126 715M207 716L208 717L207 716z"/>
<path style="fill:#a57a30; stroke:none;" d="M257 716L258 717L257 716z"/>
<path style="fill:#434343; stroke:none;" d="M351 716L352 717L351 716M391 716L392 717L391 716z"/>
<path style="fill:#353433; stroke:none;" d="M482 716L482 799L483 799L483 742L482 716M544 716L545 717L544 716M660 716L661 717L660 716M781 716L782 717L781 716M819 716L820 717L819 716M929 716L930 717L929 716M967 716L968 717L967 716M1030 716L1030 792L1031 792L1031 740L1030 716M1125 716L1125 731L1126 731L1125 716z"/>
<path style="fill:#a57a30; stroke:none;" d="M207 717L208 718L207 717z"/>
<path style="fill:#434343; stroke:none;" d="M350 717L351 718L350 717z"/>
<path style="fill:#353433; stroke:none;" d="M546 717L547 718L546 717M628.333 717.667L628.667 718.333L628.333 717.667M779 717L780 718L779 717M821 717L822 718L821 717M860 717L861 718L860 717M927 717L928 718L927 717M969 717L970 718L969 717M206 718L207 719L206 718M256 718L257 719L256 718z"/>
<path style="fill:#a57a30; stroke:none;" d="M349 718L350 719L349 718z"/>
<path style="fill:#434343; stroke:none;" d="M392 718L393 719L392 718z"/>
<path style="fill:#353433; stroke:none;" d="M444 796L445 796L445 719L459 719C455.74 717.632 446.553 716.356 444.603 720.318C441.977 725.656 444 736.111 444 742L444 796M725 718L725 719L733 719L725 718M778 718L779 719L778 718M822 718L823 719L822 718M926 718L927 719L926 718M970 718L971 719L970 718z"/>
<path style="fill:#a57a30; stroke:none;" d="M206 719L207 720L206 719M255 719L256 720L255 719M348 719L349 720L348 719M392 719L393 720L392 719z"/>
<path style="fill:#010101; stroke:none;" d="M445 719L445 796C449.769 796 458.742 797.717 462.142 793.566C465.257 789.764 464 782.561 464 778L464 738C464 733.266 465.491 725.238 462.258 721.318C458.883 717.226 449.739 719 445 719z"/>
<path style="fill:#353433; stroke:none;" d="M461 719L462 720L461 719M549 719L550 720L549 719M659.333 719.667L659.667 720.333L659.333 719.667M721 719L722 720L721 719M735 719L736 720L735 719M777 719L778 720L777 719M823 719L824 720L823 719M861 719L862 720L861 719M925 719L926 720L925 719M971 719L972 720L971 719z"/>
<path style="fill:#a57a30; stroke:none;" d="M347 720L348 721L347 720z"/>
<path style="fill:#353433; stroke:none;" d="M462 720L463 721L462 720M720 720L721 721L720 720M737 720L738 721L737 720M757 720L757 736L758 736L757 720M776 720L777 721L776 720M824 720L825 721L824 720M924 720L925 721L924 720M972 720L973 721L972 720z"/>
<path style="fill:#434343; stroke:none;" d="M205 721L206 722L205 721z"/>
<path style="fill:#353433; stroke:none;" d="M254 721L255 722L254 721M347 721L347 722L390 722C378.775 717.289 359.219 721 347 721z"/>
<path style="fill:#434343; stroke:none;" d="M390.667 721.333L391.333 721.667L390.667 721.333z"/>
<path style="fill:#a57a30; stroke:none;" d="M392 721L393 722L392 721z"/>
<path style="fill:#434343; stroke:none;" d="M393 721L394 722L393 721z"/>
<path style="fill:#353433; stroke:none;" d="M629.333 721.667L629.667 722.333L629.333 721.667M775 721L776 722L775 721M825 721L826 722L825 721M862 721L863 722L862 721M923 721L924 722L923 721M973 721L974 722L973 721z"/>
<path style="fill:#a57a30; stroke:none;" d="M205 722L206 723L205 722z"/>
<path style="fill:#434343; stroke:none;" d="M253 722L254 723L253 722z"/>
<path style="fill:#353433; stroke:none;" d="M463 722L464 723L463 722M551 722L552 723L551 722M719 722L719 793L720 793L720 744L719 722M738 722L738 737L739 737L738 722z"/>
<path style="fill:#a57a30; stroke:none;" d="M252 723L253 724L252 723z"/>
<path style="fill:#353433; stroke:none;" d="M658.333 723.667L658.667 724.333L658.333 723.667M774 723L775 724L774 723M826 723L827 724L826 723M863 723L864 724L863 723M922 723L923 724L922 723M974 723L975 724L974 723z"/>
<path style="fill:#434343; stroke:none;" d="M204 724L205 725L204 724z"/>
<path style="fill:#a57a30; stroke:none;" d="M251 724L252 725L251 724z"/>
<path style="fill:#353433; stroke:none;" d="M552 724L553 725L552 724z"/>
<path style="fill:#a57a30; stroke:none;" d="M204 725L205 726L204 725z"/>
<path style="fill:#353433; stroke:none;" d="M630.333 725.667L630.667 726.333L630.333 725.667M773 725L774 726L773 725M827 725L828 726L827 725M864 725L865 726L864 725M921 725L922 726L921 725M975 725L976 726L975 725z"/>
<path style="fill:#434343; stroke:none;" d="M250 726L251 727L250 726z"/>
<path style="fill:#353433; stroke:none;" d="M553.333 726.667L553.667 727.333L553.333 726.667z"/>
<path style="fill:#434343; stroke:none;" d="M203 727L204 728L203 727z"/>
<path style="fill:#a57a30; stroke:none;" d="M249 727L250 728L249 727z"/>
<path style="fill:#353433; stroke:none;" d="M657.333 727.667L657.667 728.333L657.333 727.667M865 727L866 728L865 727z"/>
<path style="fill:#a57a30; stroke:none;" d="M203 728L204 729L203 728M248 728L249 729L248 728z"/>
<path style="fill:#353433; stroke:none;" d="M772.333 728.667L772.667 729.333L772.333 728.667M828.333 728.667L828.667 729.333L828.333 728.667M920.333 728.667L920.667 729.333L920.333 728.667M976.333 728.667L976.667 729.333L976.333 728.667M631.333 729.667L631.667 730.333L631.333 729.667M866 729L867 730L866 729M202 730L203 731L202 730M247 730L248 731L247 730M554 730L554 769L555 769C555 757.828 558.311 740.274 554 730z"/>
<path style="fill:#434343; stroke:none;" d="M202 731L203 732L202 731z"/>
<path style="fill:#a57a30; stroke:none;" d="M246 731L247 732L246 731z"/>
<path style="fill:#353433; stroke:none;" d="M656.333 731.667L656.667 732.333L656.333 731.667M867 731L868 732L867 731z"/>
<path style="fill:#a57a30; stroke:none;" d="M202 732L203 733L202 732M245 732L246 733L245 732z"/>
<path style="fill:#353433; stroke:none;" d="M516 732L516 733L531 733L516 732M795 732L795 733L806 733L795 732M943 732L943 733L954 733L943 732M1126 732L1127 733L1126 732M1182 732L1183 733L1182 732z"/>
<path style="fill:#010101; stroke:none;" d="M516 733L516 766C520.831 766 529.754 767.706 533.682 764.397C537.768 760.954 538.051 738.535 534.258 734.742C530.646 731.13 520.716 733 516 733z"/>
<path style="fill:#353433; stroke:none;" d="M533 733L534 734L533 733M632.333 733.667L632.667 734.333L632.333 733.667M792 733L791 735L792 733z"/>
<path style="fill:#010101; stroke:none;" d="M793.318 734.028C789.159 736.803 791 746.688 791 751C791 762.353 787.068 782.464 791.603 792.852C793.497 797.188 805.076 797.374 808.566 794.972C812.784 792.07 811 782.405 811 778C811 765.853 814.14 748.712 810.566 737.109C808.955 731.876 797.301 731.37 793.318 734.028z"/>
<path style="fill:#353433; stroke:none;" d="M808 733L809 734L808 733M868 733L869 734L868 733M940 733L941 734L940 733M1144 733L1144 813L1145 813L1145 758L1144 733M201 734L202 735L201 734M244 734L245 735L244 734z"/>
<path style="fill:#434343; stroke:none;" d="M201 735L202 736L201 735z"/>
<path style="fill:#a57a30; stroke:none;" d="M243 735L244 736L243 735z"/>
<path style="fill:#353433; stroke:none;" d="M535 735L536 736L535 735M655.333 735.667L655.667 736.333L655.333 735.667M810 735L811 736L810 735M869 735L870 736L869 735M957 735L958 736L957 735z"/>
<path style="fill:#a57a30; stroke:none;" d="M201 736L202 737L201 736M242 736L243 737L242 736z"/>
<path style="fill:#353433; stroke:none;" d="M790 736L790 793L791 793L791 754L790 736M633.333 737.667L633.667 738.333L633.333 737.667M870 737L871 738L870 737M938 737L938 751L939 751L938 737M241 738L242 739L241 738M741 738L741 739L755 739L741 738M811 738L811 791L812 791L812 755L811 738M958 738L958 746L959 746L958 738M200 739L201 740L200 739z"/>
<path style="fill:#434343; stroke:none;" d="M240 739L241 740L240 739z"/>
<path style="fill:#353433; stroke:none;" d="M654.333 739.667L654.667 740.333L654.333 739.667M871 739L872 740L871 739z"/>
<path style="fill:#434343; stroke:none;" d="M200.333 740.667L200.667 741.333L200.333 740.667z"/>
<path style="fill:#a57a30; stroke:none;" d="M239 740L240 741L239 740z"/>
<path style="fill:#353433; stroke:none;" d="M398 740L399 741L398 740z"/>
<path style="fill:#a57a30; stroke:none;" d="M395 744L399 743L399 742L395 744z"/>
<path style="fill:#353433; stroke:none;" d="M634.333 741.667L634.667 742.333L634.333 741.667M872 741L873 742L872 741z"/>
<path style="fill:#a57a30; stroke:none;" d="M200.333 742.667L200.667 743.333L200.333 742.667z"/>
<path style="fill:#353433; stroke:none;" d="M238 742L239 743L238 742z"/>
<path style="fill:#febd4b; stroke:none;" d="M397 742L306 815.576L265 850C313.998 865.938 368.349 846.359 390.305 798C396.04 785.367 398.514 772.767 399.196 759C399.452 753.83 400.192 746.213 397 742z"/>
<path style="fill:#434343; stroke:none;" d="M237 743L238 744L237 743z"/>
<path style="fill:#353433; stroke:none;" d="M653.333 743.667L653.667 744.333L653.333 743.667M873 743L874 744L873 743z"/>
<path style="fill:#a57a30; stroke:none;" d="M236 744L237 745L236 744z"/>
<path style="fill:#353433; stroke:none;" d="M393 744L394 745L393 744z"/>
<path style="fill:#434343; stroke:none;" d="M392 745L393 746L392 745z"/>
<path style="fill:#353433; stroke:none;" d="M399.333 745.667L399.667 746.333L399.333 745.667M635.333 745.667L635.667 746.333L635.333 745.667M874 745L875 746L874 745M199 746L199 749L200 749L199 746M235 746L236 747L235 746z"/>
<path style="fill:#a57a30; stroke:none;" d="M391 746L392 747L391 746z"/>
<path style="fill:#353433; stroke:none;" d="M959 746L959 747L976 747L959 746z"/>
<path style="fill:#434343; stroke:none;" d="M234 747L235 748L234 747z"/>
<path style="fill:#a57a30; stroke:none;" d="M390 747L391 748L390 747z"/>
<path style="fill:#434343; stroke:none;" d="M399 747L399 750L400 750L399 747z"/>
<path style="fill:#353433; stroke:none;" d="M652.333 747.667L652.667 748.333L652.333 747.667M875 747L876 748L875 747z"/>
<path style="fill:#a57a30; stroke:none;" d="M233 748L234 749L233 748z"/>
<path style="fill:#353433; stroke:none;" d="M388 748L389 749L388 748z"/>
<path style="fill:#434343; stroke:none;" d="M199 749L199 753L200 753L199 749M387 749L388 750L387 749z"/>
<path style="fill:#353433; stroke:none;" d="M636.333 749.667L636.667 750.333L636.333 749.667M876.333 749.667L876.667 750.333L876.333 749.667M232 750L233 751L232 750z"/>
<path style="fill:#a57a30; stroke:none;" d="M386 750L387 751L386 750M399 750L399 756L400 756L399 750z"/>
<path style="fill:#434343; stroke:none;" d="M231 751L232 752L231 751z"/>
<path style="fill:#a57a30; stroke:none;" d="M385 751L386 752L385 751z"/>
<path style="fill:#353433; stroke:none;" d="M651.333 751.667L651.667 752.333L651.333 751.667M877.333 751.667L877.667 752.333L877.333 751.667M940.667 751.333L941.333 751.667L940.667 751.333z"/>
<path style="fill:#a57a30; stroke:none;" d="M230 752L231 753L230 752z"/>
<path style="fill:#353433; stroke:none;" d="M383 752L384 753L383 752M943.667 752.333L944.333 752.667L943.667 752.333z"/>
<path style="fill:#a57a30; stroke:none;" d="M199 753L199 762L200 762L199 753z"/>
<path style="fill:#434343; stroke:none;" d="M382 753L383 754L382 753z"/>
<path style="fill:#353433; stroke:none;" d="M637.333 753.667L637.667 754.333L637.333 753.667M878.333 753.667L878.667 754.333L878.333 753.667M946.667 753.333L947.333 753.667L946.667 753.333M229 754L230 755L229 754z"/>
<path style="fill:#a57a30; stroke:none;" d="M381 754L382 755L381 754z"/>
<path style="fill:#353433; stroke:none;" d="M949.667 754.333L950.333 754.667L949.667 754.333z"/>
<path style="fill:#a57a30; stroke:none;" d="M228 755L229 756L228 755M380 755L381 756L380 755z"/>
<path style="fill:#353433; stroke:none;" d="M622 755L624 757L624 755L622 755M650.333 755.667L650.667 756.333L650.333 755.667M665 755L666 756L665 755M953 755L954 756L953 755M378 756L379 757L378 756M664 756L664 759L665 759L664 756M666 756L666 814L667 814L667 775L666 756M879 756L880 757L879 756M956 756L957 757L956 756z"/>
<path style="fill:#a57a30; stroke:none;" d="M227 757L228 758L227 757z"/>
<path style="fill:#353433; stroke:none;" d="M377 757L378 758L377 757z"/>
<path style="fill:#a57a30; stroke:none;" d="M399 757L399 764L400 764L399 757z"/>
<path style="fill:#353433; stroke:none;" d="M638.333 757.667L638.667 758.333L638.333 757.667M959 757L960 758L959 757M227.333 758.667L227.667 759.333L227.333 758.667z"/>
<path style="fill:#a57a30; stroke:none;" d="M376 758L377 759L376 758z"/>
<path style="fill:#353433; stroke:none;" d="M861 758L861 814L862 814L862 775L861 758M880 758L881 759L880 758M962 758L963 759L962 758z"/>
<path style="fill:#a57a30; stroke:none;" d="M375 759L376 760L375 759z"/>
<path style="fill:#353433; stroke:none;" d="M624.333 759.667L624.667 760.333L624.333 759.667M649.333 759.667L649.667 760.333L649.333 759.667M965.667 759.333L966.333 759.667L965.667 759.333M881 760L882 761L881 760M968.667 760.333L969.333 760.667L968.667 760.333M372 761L373 762L372 761M639.333 761.667L639.667 762.333L639.333 761.667M663.333 761.667L663.667 762.333L663.333 761.667M863 761L864 762L863 761M971.667 761.333L972.333 761.667L971.667 761.333z"/>
<path style="fill:#434343; stroke:none;" d="M199.333 762.667L199.667 763.333L199.333 762.667z"/>
<path style="fill:#353433; stroke:none;" d="M227 762L228 763L227 762z"/>
<path style="fill:#434343; stroke:none;" d="M371 762L372 763L371 762z"/>
<path style="fill:#353433; stroke:none;" d="M882 762L883 763L882 762M920 762L921 763L920 762M974 762L975 763L974 762z"/>
<path style="fill:#434343; stroke:none;" d="M227 763L228 764L227 763z"/>
<path style="fill:#a57a30; stroke:none;" d="M370 763L371 764L370 763z"/>
<path style="fill:#353433; stroke:none;" d="M535 763L536 764L535 763M625 763L625 766L626 766L625 763M648.333 763.667L648.667 764.333L648.333 763.667M864 763L865 764L864 763M921 763L922 764L921 763M975 763L976 764L975 763M199.333 764.667L199.667 765.333L199.333 764.667z"/>
<path style="fill:#a57a30; stroke:none;" d="M227 764L228 765L227 764M369 764L370 765L369 764z"/>
<path style="fill:#434343; stroke:none;" d="M399.333 764.667L399.667 765.333L399.333 764.667z"/>
<path style="fill:#353433; stroke:none;" d="M534 764L535 765L534 764M883 764L884 765L883 764M922 764L923 765L922 764M976 764L977 765L976 764M228 765L229 766L228 765M367 765L368 766L367 765M533 765L534 766L533 765M640.333 765.667L640.667 766.333L640.333 765.667M662.333 765.667L662.667 766.333L662.333 765.667M865 765L866 766L865 765M924.667 765.333L925.333 765.667L924.667 765.333z"/>
<path style="fill:#a57a30; stroke:none;" d="M228 766L229 767L228 766z"/>
<path style="fill:#434343; stroke:none;" d="M366 766L367 767L366 766z"/>
<path style="fill:#353433; stroke:none;" d="M399 766L400 767L399 766M884 766L885 767L884 766M927.667 766.333L928.333 766.667L927.667 766.333z"/>
<path style="fill:#a57a30; stroke:none;" d="M229 767L230 768L229 767M365 767L366 768L365 767z"/>
<path style="fill:#353433; stroke:none;" d="M647.333 767.667L647.667 768.333L647.333 767.667M866 767L867 768L866 767M930.667 767.333L931.333 767.667L930.667 767.333z"/>
<path style="fill:#434343; stroke:none;" d="M230 768L231 769L230 768z"/>
<path style="fill:#a57a30; stroke:none;" d="M364 768L365 769L364 768z"/>
<path style="fill:#353433; stroke:none;" d="M626.333 768.667L626.667 769.333L626.333 768.667M885 768L886 769L885 768M933.667 768.333L934.333 768.667L933.667 768.333z"/>
<path style="fill:#a57a30; stroke:none;" d="M200.333 769.667L200.667 770.333L200.333 769.667M231 769L232 770L231 769z"/>
<path style="fill:#353433; stroke:none;" d="M362 769L363 770L362 769M641.333 769.667L641.667 770.333L641.333 769.667M661.333 769.667L661.667 770.333L661.333 769.667M867 769L868 770L867 769M937 769L938 770L937 769z"/>
<path style="fill:#a57a30; stroke:none;" d="M233 770L234 771L233 770z"/>
<path style="fill:#353433; stroke:none;" d="M234 770L235 771L234 770z"/>
<path style="fill:#434343; stroke:none;" d="M361 770L362 771L361 770z"/>
<path style="fill:#a57a30; stroke:none;" d="M398.333 770.667L398.667 771.333L398.333 770.667z"/>
<path style="fill:#353433; stroke:none;" d="M886 770L887 771L886 770M940 770L941 771L940 770z"/>
<path style="fill:#434343; stroke:none;" d="M200 771L201 772L200 771z"/>
<path style="fill:#a57a30; stroke:none;" d="M236 771L236 772L281 773L267 771L236 771z"/>
<path style="fill:#434343; stroke:none;" d="M280 771L281 772L280 771z"/>
<path style="fill:#a57a30; stroke:none;" d="M360 771L361 772L360 771z"/>
<path style="fill:#353433; stroke:none;" d="M553.333 771.667L553.667 772.333L553.333 771.667M646.333 771.667L646.667 772.333L646.333 771.667M868 771L869 772L868 771M943 771L944 772L943 771M200 772L201 773L200 772z"/>
<path style="fill:#a57a30; stroke:none;" d="M359 772L360 773L359 772z"/>
<path style="fill:#434343; stroke:none;" d="M398 772L399 773L398 772z"/>
<path style="fill:#353433; stroke:none;" d="M627.333 772.667L627.667 773.333L627.333 772.667M946 772L947 773L946 772z"/>
<path style="fill:#434343; stroke:none;" d="M280 773L281 774L280 773z"/>
<path style="fill:#353433; stroke:none;" d="M357 773L358 774L357 773M398 773L399 774L398 773M642 773L642 776L643 776L642 773M660.333 773.667L660.667 774.333L660.333 773.667M869 773L870 774L869 773M949 773L950 774L949 773z"/>
<path style="fill:#a57a30; stroke:none;" d="M279 774L280 775L279 774z"/>
<path style="fill:#353433; stroke:none;" d="M356 774L357 775L356 774M552 774L553 775L552 774M952.667 774.333L953.333 774.667L952.667 774.333z"/>
<path style="fill:#a57a30; stroke:none;" d="M201.333 775.667L201.667 776.333L201.333 775.667z"/>
<path style="fill:#353433; stroke:none;" d="M279 775L280 776L279 775z"/>
<path style="fill:#a57a30; stroke:none;" d="M355 775L356 776L355 775z"/>
<path style="fill:#353433; stroke:none;" d="M645.333 775.667L645.667 776.333L645.333 775.667M870 775L871 776L870 775M955.667 775.333L956.333 775.667L955.667 775.333z"/>
<path style="fill:#a57a30; stroke:none;" d="M278 776L279 777L278 776M354 776L355 777L354 776M397 776L398 777L397 776z"/>
<path style="fill:#353433; stroke:none;" d="M551 776L552 777L551 776M628.333 776.667L628.667 777.333L628.333 776.667M740 776L740 777L756 777L740 776z"/>
<path style="fill:#434343; stroke:none;" d="M201 777L202 778L201 777M397 777L398 778L397 777z"/>
<path style="fill:#353433; stroke:none;" d="M550 777L551 778L550 777M643 777L644 781L645 781L643 777M871 777L872 778L871 777M958 777L958 791L959 791L958 777z"/>
<path style="fill:#a57a30; stroke:none;" d="M277 778L278 779L277 778z"/>
<path style="fill:#353433; stroke:none;" d="M351 778L352 779L351 778M397 778L398 779L397 778M659.333 778.667L659.667 779.333L659.333 778.667M738 778L738 792L739 792L738 778M757 778L757 795L758 795L757 778z"/>
<path style="fill:#a57a30; stroke:none;" d="M202.333 779.667L202.667 780.333L202.333 779.667z"/>
<path style="fill:#434343; stroke:none;" d="M350 779L351 780L350 779z"/>
<path style="fill:#353433; stroke:none;" d="M548 779L549 780L548 779M872 779L873 780L872 779z"/>
<path style="fill:#434343; stroke:none;" d="M276 780L277 781L276 780z"/>
<path style="fill:#a57a30; stroke:none;" d="M349 780L350 781L349 780M396 780L397 781L396 780z"/>
<path style="fill:#353433; stroke:none;" d="M547 780L548 781L547 780M629.333 780.667L629.667 781.333L629.333 780.667z"/>
<path style="fill:#434343; stroke:none;" d="M202 781L203 782L202 781z"/>
<path style="fill:#a57a30; stroke:none;" d="M348 781L349 782L348 781z"/>
<path style="fill:#434343; stroke:none;" d="M396 781L397 782L396 781z"/>
<path style="fill:#353433; stroke:none;" d="M546 781L547 782L546 781M873 781L874 782L873 781M275 782L276 783L275 782M346 782L347 783L346 782M396 782L397 783L396 782M658.333 782.667L658.667 783.333L658.333 782.667M922 782L922 783L937 783L922 782z"/>
<path style="fill:#a57a30; stroke:none;" d="M203.333 783.667L203.667 784.333L203.333 783.667M274 783L275 784L274 783z"/>
<path style="fill:#434343; stroke:none;" d="M345 783L346 784L345 783z"/>
<path style="fill:#353433; stroke:none;" d="M874 783L875 784L874 783M920 783L921 784L920 783M938 783L938 791L939 791L938 783M274 784L275 785L274 784z"/>
<path style="fill:#a57a30; stroke:none;" d="M344 784L345 785L344 784M395 784L396 785L395 784z"/>
<path style="fill:#353433; stroke:none;" d="M516 784L516 785L529 785L516 784M547.333 784.667L547.667 785.333L547.333 784.667M203 785L204 786L203 785z"/>
<path style="fill:#a57a30; stroke:none;" d="M273 785L274 786L273 785M343 785L344 786L343 785z"/>
<path style="fill:#434343; stroke:none;" d="M395 785L396 786L395 785z"/>
<path style="fill:#353433; stroke:none;" d="M630.333 785.667L630.667 786.333L630.333 785.667M875 785L876 786L875 785M341 786L342 787L341 786M529.333 786.667L529.667 787.333L529.333 786.667M657.333 786.667L657.667 787.333L657.333 786.667z"/>
<path style="fill:#a57a30; stroke:none;" d="M204 787L205 788L204 787z"/>
<path style="fill:#434343; stroke:none;" d="M272 787L273 788L272 787M340 787L341 788L340 787z"/>
<path style="fill:#a57a30; stroke:none;" d="M394 787L395 788L394 787z"/>
<path style="fill:#353433; stroke:none;" d="M876 787L877 788L876 787M204 788L205 789L204 788z"/>
<path style="fill:#a57a30; stroke:none;" d="M339 788L340 789L339 788z"/>
<path style="fill:#434343; stroke:none;" d="M394 788L395 789L394 788z"/>
<path style="fill:#353433; stroke:none;" d="M548.333 788.667L548.667 789.333L548.333 788.667z"/>
<path style="fill:#434343; stroke:none;" d="M271 789L272 790L271 789z"/>
<path style="fill:#a57a30; stroke:none;" d="M338 789L339 790L338 789z"/>
<path style="fill:#353433; stroke:none;" d="M631.333 789.667L631.667 790.333L631.333 789.667M877 789L878 790L877 789z"/>
<path style="fill:#a57a30; stroke:none;" d="M205 790L206 791L205 790M270 790L271 791L270 790z"/>
<path style="fill:#353433; stroke:none;" d="M336 790L337 791L336 790z"/>
<path style="fill:#a57a30; stroke:none;" d="M393 790L394 791L393 790z"/>
<path style="fill:#353433; stroke:none;" d="M530.333 790.667L530.667 791.333L530.333 790.667M656.333 790.667L656.667 791.333L656.333 790.667M205 791L206 792L205 791M270 791L271 792L270 791M335 791L336 792L335 791M393 791L394 792L393 791M463.333 791.667L463.667 792.333L463.333 791.667M878 791L879 792L878 791M1011.33 791.667L1011.67 792.333L1011.33 791.667z"/>
<path style="fill:#a57a30; stroke:none;" d="M206 792L207 793L206 792M269 792L270 793L269 792M334 792L335 793L334 792z"/>
<path style="fill:#353433; stroke:none;" d="M549 792L549 795L550 795L549 792z"/>
<path style="fill:#434343; stroke:none;" d="M206 793L207 794L206 793z"/>
<path style="fill:#a57a30; stroke:none;" d="M333 793L334 794L333 793M392 793L393 794L392 793z"/>
<path style="fill:#353433; stroke:none;" d="M632.333 793.667L632.667 794.333L632.333 793.667M810 793L811 794L810 793M879 793L880 794L879 793M1029 793L1030 794L1029 793z"/>
<path style="fill:#a57a30; stroke:none;" d="M268 794L269 795L268 794z"/>
<path style="fill:#353433; stroke:none;" d="M392 794L393 795L392 794M462 794L463 795L462 794M531.333 794.667L531.667 795.333L531.333 794.667M655 794L655 797L656 797L655 794M720 794L721 795L720 794M791 794L792 795L791 794M939 794L940 795L939 794M957 794L958 795L957 794M1012 794L1013 795L1012 794z"/>
<path style="fill:#a57a30; stroke:none;" d="M207 795L208 796L207 795z"/>
<path style="fill:#353433; stroke:none;" d="M330 795L331 796L330 795z"/>
<path style="fill:#a57a30; stroke:none;" d="M391 795L392 796L391 795z"/>
<path style="fill:#353433; stroke:none;" d="M460 795L461 796L460 795M722 795L723 796L722 795M735 795L736 796L735 795M792 795L793 796L792 795M809 795L810 796L809 795M880 795L881 796L880 795M940 795L941 796L940 795M956 795L957 796L956 795M1014 795L1015 796L1014 795M1027 795L1028 796L1027 795z"/>
<path style="fill:#434343; stroke:none;" d="M267 796L268 797L267 796M329 796L330 797L329 796z"/>
<path style="fill:#353433; stroke:none;" d="M391 796L392 797L391 796M794 796L794 797L808 797L794 796M942.667 796.333L943.333 796.667L942.667 796.333M953.667 796.333L954.333 796.667L953.667 796.333z"/>
<path style="fill:#a57a30; stroke:none;" d="M208 797L209 798L208 797M328 797L329 798L328 797M390 797L391 798L390 797z"/>
<path style="fill:#353433; stroke:none;" d="M550.333 797.667L550.667 798.333L550.333 797.667M633.333 797.667L633.667 798.333L633.333 797.667M881 797L882 798L881 797M208 798L209 799L208 798M266 798L267 799L266 798z"/>
<path style="fill:#a57a30; stroke:none;" d="M327 798L328 799L327 798z"/>
<path style="fill:#353433; stroke:none;" d="M390 798L391 799L390 798M532 798L532 801L533 801L532 798z"/>
<path style="fill:#a57a30; stroke:none;" d="M209 799L210 800L209 799M265 799L266 800L265 799z"/>
<path style="fill:#353433; stroke:none;" d="M325 799L326 800L325 799z"/>
<path style="fill:#a57a30; stroke:none;" d="M389 799L390 800L389 799z"/>
<path style="fill:#353433; stroke:none;" d="M654.333 799.667L654.667 800.333L654.333 799.667M700.333 799.667L700.667 800.333L700.333 799.667M772.333 799.667L772.667 800.333L772.333 799.667M828.333 799.667L828.667 800.333L828.333 799.667M882 799L883 800L882 799M920.333 799.667L920.667 800.333L920.333 799.667M976.333 799.667L976.667 800.333L976.333 799.667M992.333 799.667L992.667 800.333L992.333 799.667M1048.33 799.667L1048.67 800.333L1048.33 799.667M209 800L210 801L209 800M265 800L266 801L265 800z"/>
<path style="fill:#434343; stroke:none;" d="M324 800L325 801L324 800M389 800L390 801L389 800z"/>
<path style="fill:#353433; stroke:none;" d="M756.333 800.667L756.667 801.333L756.333 800.667z"/>
<path style="fill:#a57a30; stroke:none;" d="M210 801L211 802L210 801M264 801L265 802L264 801M323 801L324 802L323 801z"/>
<path style="fill:#353433; stroke:none;" d="M481.333 801.667L481.667 802.333L481.333 801.667M551.333 801.667L551.667 802.333L551.333 801.667M634 801L634 804L635 804L634 801M883 801L884 802L883 801M210 802L211 803L210 802z"/>
<path style="fill:#a57a30; stroke:none;" d="M322 802L323 803L322 802z"/>
<path style="fill:#434343; stroke:none;" d="M388 802L389 803L388 802z"/>
<path style="fill:#a57a30; stroke:none;" d="M211 803L212 804L211 803z"/>
<path style="fill:#434343; stroke:none;" d="M263 803L264 804L263 803z"/>
<path style="fill:#353433; stroke:none;" d="M320 803L321 804L320 803M533.333 803.667L533.667 804.333L533.333 803.667M653.333 803.667L653.667 804.333L653.333 803.667M701 803L702 804L701 803M773 803L774 804L773 803M827 803L828 804L827 803M884 803L885 804L884 803M921 803L922 804L921 803M975 803L976 804L975 803M993 803L994 804L993 803M1047 803L1048 804L1047 803M211 804L212 805L211 804z"/>
<path style="fill:#434343; stroke:none;" d="M319 804L320 805L319 804z"/>
<path style="fill:#353433; stroke:none;" d="M387 804L388 805L387 804M480.333 804.667L480.667 805.333L480.333 804.667M755 804L756 805L755 804z"/>
<path style="fill:#a57a30; stroke:none;" d="M212 805L213 806L212 805z"/>
<path style="fill:#434343; stroke:none;" d="M262 805L263 806L262 805z"/>
<path style="fill:#a57a30; stroke:none;" d="M318 805L319 806L318 805M386 805L387 806L386 805z"/>
<path style="fill:#353433; stroke:none;" d="M552.333 805.667L552.667 806.333L552.333 805.667M702 805L703 806L702 805M774.333 805.667L774.667 806.333L774.333 805.667M826.333 805.667L826.667 806.333L826.333 805.667M885 805L886 806L885 805M922.333 805.667L922.667 806.333L922.333 805.667M974.333 805.667L974.667 806.333L974.333 805.667M994.333 805.667L994.667 806.333L994.333 805.667M1046.33 805.667L1046.67 806.333L1046.33 805.667z"/>
<path style="fill:#a57a30; stroke:none;" d="M261 806L262 807L261 806M317 806L318 807L317 806z"/>
<path style="fill:#353433; stroke:none;" d="M386 806L387 807L386 806M479 806L480 807L479 806M635.333 806.667L635.667 807.333L635.333 806.667M754 806L755 807L754 806z"/>
<path style="fill:#434343; stroke:none;" d="M213 807L214 808L213 807z"/>
<path style="fill:#353433; stroke:none;" d="M261 807L262 808L261 807M315 807L316 808L315 807z"/>
<path style="fill:#a57a30; stroke:none;" d="M385 807L386 808L385 807z"/>
<path style="fill:#353433; stroke:none;" d="M534.333 807.667L534.667 808.333L534.333 807.667M652.333 807.667L652.667 808.333L652.333 807.667M703 807L704 808L703 807M753 807L754 808L753 807M775 807L776 808L775 807M825 807L826 808L825 807M886 807L887 808L886 807M923 807L924 808L923 807M973 807L974 808L973 807M995 807L996 808L995 807M1045 807L1046 808L1045 807z"/>
<path style="fill:#a57a30; stroke:none;" d="M260 808L261 809L260 808z"/>
<path style="fill:#353433; stroke:none;" d="M314 808L315 809L314 808M478 808L479 809L478 808M704 808L705 809L704 808M776 808L777 809L776 808M824 808L825 809L824 808M924 808L925 809L924 808M972 808L973 809L972 808M996 808L997 809L996 808M1044 808L1045 809L1044 808M214 809L215 810L214 809z"/>
<path style="fill:#434343; stroke:none;" d="M313 809L314 810L313 809M384 809L385 810L384 809z"/>
<path style="fill:#353433; stroke:none;" d="M477 809L478 810L477 809M553.333 809.667L553.667 810.333L553.333 809.667M887 809L888 810L887 809z"/>
<path style="fill:#a57a30; stroke:none;" d="M215 810L216 811L215 810M259 810L260 811L259 810M312 810L313 811L312 810M383 810L384 811L383 810z"/>
<path style="fill:#353433; stroke:none;" d="M476 810L477 811L476 810M636.333 810.667L636.667 811.333L636.333 810.667M706 810L707 811L706 810M750 810L751 811L750 810M778 810L779 811L778 810M822 810L823 811L822 810M926 810L927 811L926 810M970 810L971 811L970 810M998 810L999 811L998 810M1042 810L1043 811L1042 810M383 811L384 812L383 811M535.333 811.667L535.667 812.333L535.333 811.667M651.333 811.667L651.667 812.333L651.333 811.667M707 811L708 812L707 811M749 811L750 812L749 811M779 811L780 812L779 811M821 811L822 812L821 811M888 811L889 812L888 811M927 811L928 812L927 811M969 811L970 812L969 811M999 811L1000 812L999 811M1041 811L1042 812L1041 811z"/>
<path style="fill:#434343; stroke:none;" d="M216 812L217 813L216 812M258 812L259 813L258 812z"/>
<path style="fill:#353433; stroke:none;" d="M309 812L310 813L309 812z"/>
<path style="fill:#a57a30; stroke:none;" d="M382 812L383 813L382 812z"/>
<path style="fill:#353433; stroke:none;" d="M473 812L474 813L473 812M709 812L710 813L709 812M747 812L748 813L747 812M781 812L782 813L781 812M819 812L820 813L819 812M929 812L930 813L929 812M967 812L968 813L967 812M1001 812L1002 813L1001 812M1039 812L1040 813L1039 812z"/>
<path style="fill:#a57a30; stroke:none;" d="M217 813L218 814L217 813M257 813L258 814L257 813z"/>
<path style="fill:#434343; stroke:none;" d="M308 813L309 814L308 813z"/>
<path style="fill:#a57a30; stroke:none;" d="M381 813L382 814L381 813z"/>
<path style="fill:#353433; stroke:none;" d="M470.667 813.333L471.333 813.667L470.667 813.333M515 813L516 814L515 813M621 813L622 814L621 813M637 813L638 814L637 813M711.667 813.333L712.333 813.667L711.667 813.333M745 813L746 814L745 813M783 813L784 814L783 813M817 813L818 814L817 813M889 813L890 814L889 813M931 813L932 814L931 813M965 813L966 814L965 813M1003 813L1004 814L1003 813M1037 813L1038 814L1037 813M257 814L258 815L257 814z"/>
<path style="fill:#a57a30; stroke:none;" d="M307 814L308 815L307 814z"/>
<path style="fill:#353433; stroke:none;" d="M426 814L427 815L426 814M464 814L464 815L468 815L464 814M514 814L515 815L514 814M536 814L537 815L536 814M553 814L554 815L553 814M620 814L621 815L620 814M638 814L639 815L638 814M649 814L650 815L649 814M667 814L668 815L667 814M683 814L684 815L683 814M715 814L715 815L719 815L715 814M738 814L738 815L743 815L738 814M786 814L786 815L791 815L786 814M810 814L810 815L815 815L810 814M844 814L845 815L844 814M860 814L861 815L860 814M890 814L891 815L890 814M935 814L935 815L939 815L935 814M958 814L958 815L963 815L958 814M1006 814L1006 815L1011 815L1006 814M1030 814L1030 815L1035 815L1030 814M1064 814L1065 815L1064 814M1145 814L1146 815L1145 814M1163 814L1164 815L1163 814M218 815L219 816L218 815z"/>
<path style="fill:#a57a30; stroke:none;" d="M256 815L257 816L256 815M306 815L307 816L306 815z"/>
<path style="fill:#434343; stroke:none;" d="M380 815L381 816L380 815M219 816L220 817L219 816z"/>
<path style="fill:#353433; stroke:none;" d="M304 816L305 817L304 816z"/>
<path style="fill:#a57a30; stroke:none;" d="M379 816L380 817L379 816M220 817L221 818L220 817M255 817L256 818L255 817z"/>
<path style="fill:#434343; stroke:none;" d="M303 817L304 818L303 817z"/>
<path style="fill:#a57a30; stroke:none;" d="M378 817L379 818L378 817M302 818L303 819L302 818z"/>
<path style="fill:#353433; stroke:none;" d="M221 819L222 820L221 819z"/>
<path style="fill:#434343; stroke:none;" d="M254 819L255 820L254 819z"/>
<path style="fill:#a57a30; stroke:none;" d="M301 819L302 820L301 819z"/>
<path style="fill:#434343; stroke:none;" d="M377 819L378 820L377 819M222 820L223 821L222 820z"/>
<path style="fill:#353433; stroke:none;" d="M299 820L300 821L299 820z"/>
<path style="fill:#a57a30; stroke:none;" d="M376 820L377 821L376 820M223 821L224 822L223 821z"/>
<path style="fill:#434343; stroke:none;" d="M253 821L254 822L253 821M298 821L299 822L298 821z"/>
<path style="fill:#a57a30; stroke:none;" d="M375 821L376 822L375 821M224 822L225 823L224 822M252 822L253 823L252 822M297 822L298 823L297 822M374 822L375 823L374 822M225 823L226 824L225 823z"/>
<path style="fill:#353433; stroke:none;" d="M252 823L253 824L252 823z"/>
<path style="fill:#a57a30; stroke:none;" d="M296 823L297 824L296 823M373 823L374 824L373 823M226 824L227 825L226 824M251 824L252 825L251 824z"/>
<path style="fill:#353433; stroke:none;" d="M294 824L295 825L294 824M293 825L294 826L293 825M372 825L373 826L372 825z"/>
<path style="fill:#a57a30; stroke:none;" d="M250 826L251 827L250 826z"/>
<path style="fill:#434343; stroke:none;" d="M292 826L293 827L292 826z"/>
<path style="fill:#353433; stroke:none;" d="M371 826L372 827L371 826M228 827L229 828L228 827z"/>
<path style="fill:#a57a30; stroke:none;" d="M291 827L292 828L291 827z"/>
<path style="fill:#353433; stroke:none;" d="M370 827L371 828L370 827z"/>
<path style="fill:#434343; stroke:none;" d="M249 828L250 829L249 828z"/>
<path style="fill:#353433; stroke:none;" d="M369 828L370 829L369 828z"/>
<path style="fill:#a57a30; stroke:none;" d="M231 829L232 830L231 829z"/>
<path style="fill:#353433; stroke:none;" d="M288 829L289 830L288 829z"/>
<path style="fill:#a57a30; stroke:none;" d="M232 830L233 831L232 830z"/>
<path style="fill:#353433; stroke:none;" d="M248 830L249 831L248 830z"/>
<path style="fill:#434343; stroke:none;" d="M287 830L288 831L287 830z"/>
<path style="fill:#a57a30; stroke:none;" d="M366 830L367 831L366 830M233 831L234 832L233 831M247 831L248 832L247 831M286 831L287 832L286 831M365 831L366 832L365 831M234 832L235 833L234 832z"/>
<path style="fill:#353433; stroke:none;" d="M247 832L248 833L247 832z"/>
<path style="fill:#a57a30; stroke:none;" d="M285 832L286 833L285 832M364 832L365 833L364 832z"/>
<path style="fill:#434343; stroke:none;" d="M235 833L236 834L235 833z"/>
<path style="fill:#a57a30; stroke:none;" d="M246 833L247 834L246 833z"/>
<path style="fill:#353433; stroke:none;" d="M283 833L284 834L283 833z"/>
<path style="fill:#a57a30; stroke:none;" d="M363 833L364 834L363 833z"/>
<path style="fill:#353433; stroke:none;" d="M236 834L237 835L236 834z"/>
<path style="fill:#434343; stroke:none;" d="M282 834L283 835L282 834M362 834L363 835L362 834z"/>
<path style="fill:#a57a30; stroke:none;" d="M238 835L239 836L238 835M245 835L246 836L245 835M281 835L282 836L281 835M360 835L361 836L360 835z"/>
<path style="fill:#434343; stroke:none;" d="M239 836L240 837L239 836z"/>
<path style="fill:#a57a30; stroke:none;" d="M280 836L281 837L280 836z"/>
<path style="fill:#434343; stroke:none;" d="M359 836L360 837L359 836z"/>
<path style="fill:#353433; stroke:none;" d="M240 837L241 838L240 837z"/>
<path style="fill:#a57a30; stroke:none;" d="M241 837L242 838L241 837z"/>
<path style="fill:#434343; stroke:none;" d="M244 837L245 838L244 837z"/>
<path style="fill:#353433; stroke:none;" d="M278 837L279 838L278 837M358 837L359 838L358 837z"/>
<path style="fill:#a57a30; stroke:none;" d="M242.667 838.333L243.333 838.667L242.667 838.333z"/>
<path style="fill:#434343; stroke:none;" d="M277 838L278 839L277 838z"/>
<path style="fill:#a57a30; stroke:none;" d="M356 838L357 839L356 838M276 839L277 840L276 839z"/>
<path style="fill:#434343; stroke:none;" d="M355 839L356 840L355 839z"/>
<path style="fill:#a57a30; stroke:none;" d="M275 840L276 841L275 840M353 840L354 841L353 840z"/>
<path style="fill:#353433; stroke:none;" d="M273 841L274 842L273 841z"/>
<path style="fill:#a57a30; stroke:none;" d="M351 841L352 842L351 841z"/>
<path style="fill:#353433; stroke:none;" d="M352 841L353 842L352 841M272 842L273 843L272 842z"/>
<path style="fill:#434343; stroke:none;" d="M350 842L351 843L350 842M271 843L272 844L271 843z"/>
<path style="fill:#a57a30; stroke:none;" d="M348 843L349 844L348 843M270 844L271 845L270 844M346 844L347 845L346 844z"/>
<path style="fill:#353433; stroke:none;" d="M347 844L348 845L347 844z"/>
<path style="fill:#a57a30; stroke:none;" d="M269 845L270 846L269 845M344 845L345 846L344 845z"/>
<path style="fill:#353433; stroke:none;" d="M345 845L346 846L345 845M267 846L268 847L267 846z"/>
<path style="fill:#a57a30; stroke:none;" d="M342 846L343 847L342 846z"/>
<path style="fill:#353433; stroke:none;" d="M343 846L344 847L343 846z"/>
<path style="fill:#434343; stroke:none;" d="M266 847L267 848L266 847z"/>
<path style="fill:#a57a30; stroke:none;" d="M340 847L341 848L340 847M265 848L266 849L265 848M338 848L339 849L338 848M264 849L265 850L264 849M335 849L336 850L335 849z"/>
<path style="fill:#353433; stroke:none;" d="M336 849L337 850L336 849M265 850L266 851L265 850z"/>
<path style="fill:#a57a30; stroke:none;" d="M266 850L267 851L266 850M332 850L333 851L332 850z"/>
<path style="fill:#434343; stroke:none;" d="M333 850L334 851L333 850M268 851L269 852L268 851z"/>
<path style="fill:#a57a30; stroke:none;" d="M269 851L270 852L269 851M329 851L330 852L329 851z"/>
<path style="fill:#434343; stroke:none;" d="M330 851L331 852L330 851M271 852L272 853L271 852z"/>
<path style="fill:#a57a30; stroke:none;" d="M272 852L273 853L272 852M326 852L327 853L326 852z"/>
<path style="fill:#434343; stroke:none;" d="M327 852L328 853L327 852M275 853L276 854L275 853z"/>
<path style="fill:#a57a30; stroke:none;" d="M276 853L277 854L276 853M322 853L323 854L322 853z"/>
<path style="fill:#434343; stroke:none;" d="M323 853L324 854L323 853M279 854L280 855L279 854z"/>
<path style="fill:#a57a30; stroke:none;" d="M280.667 854.333L281.333 854.667L280.667 854.333M317.667 854.333L318.333 854.667L317.667 854.333z"/>
<path style="fill:#434343; stroke:none;" d="M319 854L320 855L319 854z"/>
<path style="fill:#353433; stroke:none;" d="M320 854L321 855L320 854M284 855L285 856L284 855z"/>
<path style="fill:#434343; stroke:none;" d="M285 855L286 856L285 855z"/>
<path style="fill:#a57a30; stroke:none;" d="M286 855L286 856L289 856L286 855M311.667 855.333L312.333 855.667L311.667 855.333z"/>
<path style="fill:#434343; stroke:none;" d="M313 855L314 856L313 855z"/>
<path style="fill:#353433; stroke:none;" d="M314 855L315 856L314 855M292 856L292 857L295 857L292 856z"/>
<path style="fill:#434343; stroke:none;" d="M295 856L295 857L299 857L295 856z"/>
<path style="fill:#a57a30; stroke:none;" d="M299 856L300 857L299 856z"/>
<path style="fill:#434343; stroke:none;" d="M300 856L300 857L304 857L300 856z"/>
<path style="fill:#353433; stroke:none;" d="M304 856L304 857L307 857L304 856z"/>
</svg>
